<?xml version="1.0" standalone="no"?>
<!DOCTYPE svg PUBLIC "-//W3C//DTD SVG 20010904//EN"
 "http://www.w3.org/TR/2001/REC-SVG-20010904/DTD/svg10.dtd">
<svg version="1.0" xmlns="http://www.w3.org/2000/svg"
 width="291.000000pt" height="47.000000pt" viewBox="0 0 291.000000 47.000000"
 preserveAspectRatio="xMidYMid meet">
<metadata>
Created by potrace 1.15, written by Peter Selinger 2001-2017
</metadata>
<g transform="translate(0.000000,47.000000) scale(0.100000,-0.100000)"
fill="#000000" stroke="none">
<path d="M850 394 c0 -9 7 -40 16 -70 8 -30 14 -66 12 -81 -3 -26 -7 -22 -51
45 -26 40 -53 72 -60 69 -16 -5 -33 -59 -42 -127 -5 -42 -3 -60 9 -75 14 -17
17 -18 26 -5 5 8 10 38 10 67 0 28 4 54 9 57 4 3 16 -13 26 -35 10 -22 29 -51
42 -65 19 -20 26 -23 43 -14 45 24 45 143 0 218 -21 34 -40 42 -40 16z"/>
<path d="M1257 380 c-14 -16 -33 -50 -43 -75 -23 -61 -41 -37 -19 25 24 69 -2
85 -35 20 -25 -49 -26 -94 -1 -119 16 -16 18 -29 14 -78 -6 -67 7 -103 37
-103 18 0 20 7 20 63 0 72 5 81 51 106 39 21 79 83 79 124 0 31 -31 67 -59 67
-11 0 -30 -13 -44 -30z"/>
<path d="M2550 394 c0 -9 7 -40 16 -70 8 -30 14 -66 12 -81 -3 -26 -7 -22 -51
45 -26 40 -53 72 -60 69 -16 -5 -33 -59 -42 -127 -5 -42 -3 -60 9 -75 14 -17
17 -18 26 -5 5 8 10 38 10 67 0 28 4 54 9 57 4 3 16 -13 26 -35 10 -22 29 -51
42 -65 19 -20 26 -23 43 -14 45 24 45 143 0 218 -21 34 -40 42 -40 16z"/>
<path d="M2644 397 c-9 -25 2 -46 36 -65 27 -16 29 -20 22 -57 -11 -62 -7
-152 7 -169 29 -35 41 -19 42 57 2 106 9 129 42 138 39 10 57 27 57 53 0 47
-49 61 -93 26 -21 -17 -30 -18 -54 -10 -15 6 -34 18 -40 27 -11 15 -13 15 -19
0z"/>
<path d="M128 389 c-28 -16 -23 -41 6 -33 57 14 143 -36 161 -94 9 -32 -28
-72 -67 -72 l-28 0 0 76 c0 56 -3 75 -12 72 -20 -7 -38 -50 -38 -92 0 -33 -2
-37 -15 -26 -12 10 -16 9 -21 -4 -4 -11 3 -27 20 -45 14 -15 26 -32 26 -39 0
-14 36 -16 44 -3 3 4 22 11 42 14 21 4 50 19 66 33 54 53 29 153 -49 192 -48
25 -113 35 -135 21z"/>
<path d="M536 380 c-41 -13 -66 -39 -66 -71 0 -31 3 -32 94 -44 65 -9 96 -21
96 -39 0 -23 -36 -37 -87 -34 -59 4 -75 31 -17 28 72 -3 83 0 49 15 -67 31
-133 10 -121 -38 13 -54 120 -76 184 -37 27 17 32 25 32 60 0 51 -25 68 -112
78 -34 4 -63 12 -62 17 0 12 44 22 101 24 51 1 73 9 73 26 0 22 -107 32 -164
15z"/>
<path d="M1563 380 c-27 -11 -30 -40 -5 -47 16 -4 18 -13 14 -63 -2 -33 -1
-75 2 -95 6 -30 11 -36 29 -33 18 2 22 9 21 35 -2 30 1 34 39 44 84 23 124
100 74 147 -19 18 -35 22 -88 21 -35 0 -74 -4 -86 -9z"/>
<path d="M1834 363 c-57 -61 -68 -214 -16 -221 20 -3 22 1 22 37 0 44 3 46 59
35 27 -6 31 -10 31 -40 0 -35 18 -46 37 -21 15 18 24 117 11 114 -5 -1 -16 16
-24 38 -15 42 -55 85 -80 85 -8 0 -26 -12 -40 -27z"/>
<path d="M2034 381 c-29 -13 -39 -30 -20 -37 11 -4 12 -11 4 -35 -5 -16 -11
-59 -11 -96 -2 -63 0 -68 21 -71 19 -3 22 1 22 32 0 50 27 48 75 -5 22 -24 42
-38 51 -35 21 8 17 30 -11 56 l-25 24 25 26 c30 32 34 87 7 120 -20 25 -100
37 -138 21z"/>
<path d="M1005 373 c-56 -7 -62 -13 -37 -33 23 -19 29 -46 12 -52 -5 -1 -11
-29 -12 -60 -4 -88 40 -120 111 -84 72 38 63 78 -14 56 -25 -7 -47 -11 -49 -9
-3 2 -2 16 1 32 5 25 9 27 49 27 37 0 44 3 44 20 0 16 -7 20 -36 20 -28 0 -35
3 -32 18 2 13 15 18 51 20 51 3 57 10 29 35 -18 16 -49 19 -117 10z"/>
<path d="M2275 373 c-56 -7 -62 -13 -37 -33 23 -19 29 -46 12 -52 -5 -1 -11
-29 -12 -60 -4 -88 40 -120 111 -84 72 38 63 78 -14 56 -25 -7 -47 -11 -49 -9
-3 2 -2 16 1 32 5 25 9 27 49 27 37 0 44 3 44 20 0 16 -7 20 -36 20 -28 0 -35
3 -32 18 2 13 15 18 51 20 51 3 57 10 29 35 -18 16 -49 19 -117 10z"/>
</g>
</svg>
